<svg width="154" height="94" viewBox="0 0 154 94" fill="none" xmlns="http://www.w3.org/2000/svg">
<path d="M58.5479 93.1164C64.8931 93.1726 71.3037 90.3339 69.2105 84.3475C65.2856 73.0266 53.7072 74.9434 48.932 84.5386C46.1845 90.1147 52.2681 93.0602 58.6133 93.1107L58.5479 93.1164ZM132.008 89.9405C140.12 90.0192 147.839 83.2514 140.447 69.9575C162.819 70.3566 154.38 43.6452 137.569 51.1213C146.334 27.85 110.945 24.1963 115.655 48.3557C94.5259 36.9561 84.9754 55.1853 106.039 63.7181C78.4339 68.8726 101.198 96.905 118.991 77.1637C119.056 85.6684 125.663 89.873 132.008 89.9348V89.9405ZM125.271 67.9002C121.15 67.9002 117.813 65.0447 117.813 61.5259C117.813 58.0015 121.15 55.1516 125.271 55.1516C129.392 55.1516 132.663 58.0015 132.663 61.5259C132.663 65.0447 129.392 67.9002 125.271 67.9002ZM34.9332 67.1638C46.3153 67.2257 53.4456 54.522 30.943 47.0179C42.9138 33.0776 9.55235 20.3739 14.9818 43.9825C-12.9503 44.7132 3.73047 75.8765 20.2149 58.9121C24.5977 64.8423 30.1579 67.1413 34.9332 67.1638ZM9.29071 18.519C23.0278 18.1817 23.8781 8.06375 14.3276 1.5995C3.20715 -5.82033 -5.23132 18.8562 9.29071 18.519Z" fill="#C0C79C" fill-opacity="0.4"/>
</svg>
