<svg width="154" height="98" viewBox="0 0 154 98" fill="none" xmlns="http://www.w3.org/2000/svg">
<path d="M58.5479 97.4366C64.8931 97.4956 71.3037 94.5186 69.2105 88.2404C65.2856 76.3679 53.7072 78.3781 48.932 88.4409C46.1845 94.2887 52.2681 97.3777 58.6133 97.4307L58.5479 97.4366ZM132.008 94.106C140.12 94.1885 147.839 87.0909 140.447 73.1492C162.819 73.5678 154.38 45.5547 137.569 53.395C146.334 28.9897 110.945 25.158 115.655 50.4947C94.5259 38.5396 84.9754 57.6571 106.039 66.6058C78.4339 72.0115 101.198 101.41 118.991 80.7066C119.056 89.6258 125.663 94.0352 132.008 94.1001V94.106ZM125.271 70.9916C121.15 70.9916 117.813 67.997 117.813 64.3067C117.813 60.6105 121.15 57.6218 125.271 57.6218C129.392 57.6218 132.663 60.6105 132.663 64.3067C132.663 67.997 129.392 70.9916 125.271 70.9916ZM34.9332 70.2194C46.3153 70.2842 53.4456 56.9615 30.943 49.0917C42.9138 34.4721 9.55236 21.1493 14.9818 45.9084C-12.9503 46.6747 3.73046 79.3567 20.2149 61.5655C24.5977 67.7848 30.1579 70.1958 34.9332 70.2194ZM9.29071 19.204C23.0278 18.8503 23.8781 8.23928 14.3276 1.46002C3.20714 -6.32139 -5.23132 19.5577 9.29071 19.204Z" fill="#C8002F" fill-opacity="0.2"/>
</svg>
