<svg width="154" height="89" viewBox="0 0 154 89" fill="none" xmlns="http://www.w3.org/2000/svg">
<path d="M95.4521 88.0539C89.1069 88.1072 82.6963 85.4168 84.7895 79.7432C88.7144 69.0138 100.293 70.8304 105.068 79.9243C107.815 85.2091 101.732 88.0006 95.3867 88.0486L95.4521 88.0539ZM21.9916 85.0439C13.8802 85.1185 6.16123 78.7043 13.5531 66.105C-8.8187 66.4832 -0.380219 41.1674 16.4313 48.2529C7.66577 26.1974 43.0551 22.7346 38.3452 45.6318C59.4741 34.8278 69.0246 52.1046 47.9611 60.1916C75.5661 65.0768 52.8018 91.6446 35.0091 72.9347C34.9437 80.9951 28.3368 84.98 21.9916 85.0386V85.0439ZM28.7293 64.1552C32.8504 64.1552 36.1865 61.4488 36.1865 58.1139C36.1865 54.7736 32.8504 52.0726 28.7293 52.0726C24.6082 52.0726 21.3374 54.7736 21.3374 58.1139C21.3374 61.4488 24.6082 64.1552 28.7293 64.1552ZM119.067 63.4573C107.685 63.5159 100.554 51.4759 123.057 44.3639C111.086 31.1519 144.448 19.112 139.018 41.4871C166.95 42.1796 150.27 71.7148 133.785 55.6367C129.402 61.2571 123.842 63.436 119.067 63.4573ZM144.709 17.3539C130.972 17.0343 130.122 7.44494 139.672 1.31842C150.793 -5.71376 159.231 17.6736 144.709 17.3539Z" fill="#4076FF" fill-opacity="0.2"/>
</svg>
