<svg width="137" height="38" viewBox="0 0 137 38" fill="none" xmlns="http://www.w3.org/2000/svg">
<path d="M29.7922 7.82524C29.7469 7.7119 29.6381 7.65297 29.5293 7.64844C29.4205 7.65297 29.3117 7.7119 29.2664 7.82524C29.1304 8.1471 20.168 30.034 20.168 30.034H22.4664C23.024 30.034 23.3368 29.7802 23.577 29.1999L29.5293 14.7023L35.4816 29.1999C35.7218 29.7802 36.0346 30.034 36.5922 30.034H38.8906C38.8906 30.0386 29.9282 8.1471 29.7922 7.82524Z" fill="white"/>
<path d="M90.2667 7.84766L87.1523 7.84766V30.1607H90.2667V7.84766Z" fill="white"/>
<path d="M5.74784 7.97852L3.69877 7.97852C3.07771 7.97852 2.62891 8.40012 2.62891 9.09825L2.62891 30.0196H12.7292C13.7446 30.0196 14.13 29.6252 14.5606 28.9497C14.9732 28.3015 15.5897 27.1364 15.5897 27.1364L5.74784 27.1364L5.74784 7.97852Z" fill="white"/>
<path d="M57.1427 23.5429C57.1427 23.5429 45.016 8.1568 44.7667 7.84853C44.6307 7.6808 44.5853 7.64453 44.472 7.64453C44.2997 7.64453 44.2227 7.776 44.2227 7.93466C44.2227 8.10693 44.2227 8.49226 44.2227 8.60106V10.8768L44.2227 30.0211H47.3235V15.8091C47.3235 15.8091 57.5053 28.7245 58.0675 29.4408C58.4211 29.8941 58.7339 30.0347 59.1237 30.0347C59.5861 30.0347 60.1573 30.0347 60.1573 30.0347V7.98L57.12 7.98L57.1427 23.5429Z" fill="white"/>
<path d="M80.1253 28.2063C79.7083 27.5535 79.3275 27.1727 78.38 27.1455C78.3573 27.1455 78.3392 27.1409 78.3165 27.1409H70.6461V20.1324H79.5904V17.4079H70.6507V10.8662L75.7779 10.8662H78.3347C79.3184 10.8572 79.7037 10.4673 80.1253 9.80545C80.5605 9.12545 81.1589 7.97852 81.1589 7.97852L75.7779 7.97852L67.5 7.97852V30.0287H75.7779L81.1227 30.0287C81.1227 30.0287 80.7645 29.3033 80.42 28.6823C80.3157 28.5145 80.216 28.3513 80.1253 28.2063Z" fill="white"/>
<path d="M133.063 28.2063C132.646 27.5535 132.265 27.1727 131.318 27.1455C131.295 27.1455 131.277 27.1409 131.254 27.1409H123.584V20.1324H132.528V17.4079H123.588V10.8662L128.715 10.8662H131.272C132.256 10.8572 132.641 10.4673 133.063 9.80545C133.498 9.12545 134.096 7.97852 134.096 7.97852L128.715 7.97852L120.438 7.97852V30.0287H128.715L134.06 30.0287C134.06 30.0287 133.702 29.3033 133.358 28.6823C133.258 28.5145 133.158 28.3513 133.063 28.2063Z" fill="white"/>
<path d="M113.655 13.0068C113.238 11.7329 112.417 10.4727 111.511 9.58866C110.84 8.93586 110.26 8.546 109.394 8.1516C108.274 7.63933 106.919 7.39453 105.545 7.39453C99.3207 7.39453 96.1836 12.6124 96.1836 19.0543C96.1836 22.8305 97.0404 25.8769 99.1393 28.0076C100.622 29.5127 102.725 30.6052 105.545 30.6052C109.149 30.6052 111.86 28.7012 112.989 26.4663C113.261 25.9268 113.478 25.5097 113.655 24.9113C114.176 23.1841 114.19 21.1895 114.19 19.0497C114.19 19.0271 114.185 18.2881 114.185 18.2881L110.654 18.2972L105.436 18.3108C105.581 18.5919 105.93 19.2039 106.338 19.8703C106.773 20.5865 107.177 21.0217 108.224 21.0217L110.98 21.0263C110.98 21.0263 110.98 21.5295 110.931 22.1324C110.799 23.7281 110.455 25.1108 109.244 26.226C108.269 27.1236 106.855 27.5135 105.545 27.5135C103.868 27.5135 102.508 26.8969 101.433 25.8044C99.6743 24.0137 99.3841 21.2076 99.3841 19.0497C99.3841 17.0551 99.9463 10.4364 105.667 10.4364C106.483 10.4364 107.295 10.5543 108.029 10.9305C108.868 11.3567 109.561 12.0049 110.051 12.7937C110.441 13.4284 110.785 14.0313 111.62 14.0313H113.977C113.945 13.8953 113.696 13.1383 113.655 13.0068Z" fill="white"/>
</svg>
