<svg width="30" height="30" viewBox="0 0 30 30" fill="none" xmlns="http://www.w3.org/2000/svg">
<path d="M16.252 24.9226C21.1849 24.3075 25.002 20.0995 25.002 15C25.002 9.47715 20.5249 5 15.002 5C9.4791 5 5.00195 9.47715 5.00195 15C5.00195 20.0995 8.81907 24.3075 13.752 24.9226V17.5H11.252V15H13.752V12.9322C13.752 11.2607 13.926 10.6545 14.2529 10.0434C14.5796 9.4323 15.0592 8.9527 15.6704 8.62587C16.1487 8.37005 16.7421 8.21565 17.7791 8.14942C18.1906 8.12314 18.7234 8.15666 19.377 8.25V10.625H18.752C17.6054 10.625 17.1322 10.6791 16.8494 10.8304C16.674 10.9242 16.5512 11.047 16.4574 11.2224C16.3061 11.5052 16.252 11.7857 16.252 12.9322V15H19.377L18.752 17.5H16.252V24.9226ZM15.002 27.5C8.09839 27.5 2.50195 21.9035 2.50195 15C2.50195 8.09644 8.09839 2.5 15.002 2.5C21.9055 2.5 27.502 8.09644 27.502 15C27.502 21.9035 21.9055 27.5 15.002 27.5Z" fill="#272727"/>
</svg>
