<svg width="30" height="30" viewBox="0 0 30 30" fill="none" xmlns="http://www.w3.org/2000/svg">
<path d="M16.25 24.9226C21.1829 24.3075 25 20.0995 25 15C25 9.47715 20.5229 5 15 5C9.47715 5 5 9.47715 5 15C5 20.0995 8.81711 24.3075 13.75 24.9226V17.5H11.25V15H13.75V12.9322C13.75 11.2607 13.924 10.6545 14.2509 10.0434C14.5776 9.4323 15.0573 8.9527 15.6684 8.62587C16.1468 8.37005 16.7401 8.21565 17.7771 8.14942C18.1886 8.12314 18.7214 8.15666 19.375 8.25V10.625H18.75C17.6034 10.625 17.1303 10.6791 16.8474 10.8304C16.672 10.9242 16.5493 11.047 16.4554 11.2224C16.3041 11.5052 16.25 11.7857 16.25 12.9322V15H19.375L18.75 17.5H16.25V24.9226ZM15 27.5C8.09644 27.5 2.5 21.9035 2.5 15C2.5 8.09644 8.09644 2.5 15 2.5C21.9035 2.5 27.5 8.09644 27.5 15C27.5 21.9035 21.9035 27.5 15 27.5Z" fill="#C8002F"/>
</svg>
