<svg width="30" height="31" viewBox="0 0 30 31" fill="none" xmlns="http://www.w3.org/2000/svg">
<path d="M12.5 18.8672L18.9875 15.1172L12.5 11.3672V18.8672ZM26.95 9.07969C27.1125 9.66719 27.225 10.4547 27.3 11.4547C27.3875 12.4547 27.425 13.3172 27.425 14.0672L27.5 15.1172C27.5 17.8547 27.3 19.8672 26.95 21.1547C26.6375 22.2797 25.9125 23.0047 24.7875 23.3172C24.2 23.4797 23.125 23.5922 21.475 23.6672C19.85 23.7547 18.3625 23.7922 16.9875 23.7922L15 23.8672C9.7625 23.8672 6.5 23.6672 5.2125 23.3172C4.0875 23.0047 3.3625 22.2797 3.05 21.1547C2.8875 20.5672 2.775 19.7797 2.7 18.7797C2.6125 17.7797 2.575 16.9172 2.575 16.1672L2.5 15.1172C2.5 12.3797 2.7 10.3672 3.05 9.07969C3.3625 7.95469 4.0875 7.22969 5.2125 6.91719C5.8 6.75469 6.875 6.64219 8.525 6.56719C10.15 6.47969 11.6375 6.44219 13.0125 6.44219L15 6.36719C20.2375 6.36719 23.5 6.56719 24.7875 6.91719C25.9125 7.22969 26.6375 7.95469 26.95 9.07969Z" fill="#666666"/>
</svg>
