<svg width="30" height="31" viewBox="0 0 30 31" fill="none" xmlns="http://www.w3.org/2000/svg">
<path d="M20.7492 7.39219C19.8949 6.4166 19.4241 5.16394 19.4242 3.86719H15.5617V19.3672C15.5325 20.2062 15.1786 21.001 14.5746 21.5841C13.9706 22.1671 13.1637 22.4927 12.3242 22.4922C10.5492 22.4922 9.07422 21.0422 9.07422 19.2422C9.07422 17.0922 11.1492 15.4797 13.2867 16.1422V12.1922C8.97422 11.6172 5.19922 14.9672 5.19922 19.2422C5.19922 23.4047 8.64922 26.3672 12.3117 26.3672C16.2367 26.3672 19.4242 23.1797 19.4242 19.2422V11.3797C20.9905 12.5045 22.8709 13.108 24.7992 13.1047V9.24219C24.7992 9.24219 22.4492 9.35469 20.7492 7.39219Z" fill="#666666"/>
</svg>
